<svg xmlns="http://www.w3.org/2000/svg" width="64" height="64" viewBox="0 0 64 64">
  <defs>
    <linearGradient id="earthGradient" x1="0%" y1="0%" x2="100%" y2="100%">
      <stop offset="0%" stop-color="#4A90E2"/>
      <stop offset="50%" stop-color="#357ABD"/>
      <stop offset="100%" stop-color="#2E5984"/>
    </linearGradient>
    <linearGradient id="networkGradient" x1="0%" y1="0%" x2="100%" y2="100%">
      <stop offset="0%" stop-color="#FF6B6B"/>
      <stop offset="100%" stop-color="#FF8E53"/>
    </linearGradient>
    <radialGradient id="glowGradient" cx="50%" cy="50%" r="50%">
      <stop offset="0%" stop-color="#FFD700" stop-opacity="0.8"/>
      <stop offset="100%" stop-color="#FFD700" stop-opacity="0"/>
    </radialGradient>
  </defs>
  
  <!-- 背景光晕效果 -->
  <circle cx="32" cy="32" r="30" fill="url(#glowGradient)" opacity="0.3"/>
  
  <!-- 地球主体 -->
  <circle cx="32" cy="32" r="24" fill="url(#earthGradient)" stroke="#2E5984" stroke-width="1"/>
  
  <!-- 地球经纬线 -->
  <ellipse cx="32" cy="32" rx="24" ry="12" fill="none" stroke="#87CEEB" stroke-width="1.5" opacity="0.6"/>
  <ellipse cx="32" cy="32" rx="24" ry="6" fill="none" stroke="#87CEEB" stroke-width="1.2" opacity="0.4"/>
  <ellipse cx="32" cy="32" rx="16" ry="24" fill="none" stroke="#87CEEB" stroke-width="1.5" opacity="0.6"/>
  <ellipse cx="32" cy="32" rx="8" ry="24" fill="none" stroke="#87CEEB" stroke-width="1.2" opacity="0.4"/>
  
  <!-- 大陆轮廓 -->
  <path d="M16 24 Q24 20 32 24 Q40 28 48 24" fill="none" stroke="#90EE90" stroke-width="2.4" opacity="0.8"/>
  <path d="M12 36 Q20 32 28 36 Q36 40 44 36" fill="none" stroke="#90EE90" stroke-width="2.4" opacity="0.8"/>
  <path d="M20 44 Q28 42 36 44 Q44 46 52 44" fill="none" stroke="#90EE90" stroke-width="2" opacity="0.6"/>
  
  <!-- 网络连接点 -->
  <circle cx="20" cy="20" r="3" fill="url(#networkGradient)"/>
  <circle cx="44" cy="16" r="3" fill="url(#networkGradient)"/>
  <circle cx="16" cy="40" r="3" fill="url(#networkGradient)"/>
  <circle cx="48" cy="44" r="3" fill="url(#networkGradient)"/>
  <circle cx="32" cy="12" r="3" fill="url(#networkGradient)"/>
  <circle cx="52" cy="28" r="3" fill="url(#networkGradient)"/>
  
  <!-- 网络连接线 -->
  <path d="M20 20 Q32 16 44 16" fill="none" stroke="url(#networkGradient)" stroke-width="2" opacity="0.7"/>
  <path d="M16 40 Q32 36 48 44" fill="none" stroke="url(#networkGradient)" stroke-width="2" opacity="0.7"/>
  <path d="M32 12 Q36 24 44 16" fill="none" stroke="url(#networkGradient)" stroke-width="2" opacity="0.7"/>
  <path d="M52 28 Q40 32 32 32" fill="none" stroke="url(#networkGradient)" stroke-width="2" opacity="0.7"/>
  
  <!-- 中心定位标记 -->
  <circle cx="32" cy="32" r="4" fill="#FFD700" stroke="#FF6B6B" stroke-width="2"/>
  <circle cx="32" cy="32" r="1.6" fill="#FF6B6B"/>
  
  <!-- 定位脉冲效果 -->
  <circle cx="32" cy="32" r="8" fill="none" stroke="#FFD700" stroke-width="2" opacity="0.5">
    <animate attributeName="r" values="8;12;8" dur="2s" repeatCount="indefinite"/>
    <animate attributeName="opacity" values="0.5;0.1;0.5" dur="2s" repeatCount="indefinite"/>
  </circle>
</svg>