<svg xmlns="http://www.w3.org/2000/svg" width="32" height="32" viewBox="0 0 32 32">
  <defs>
    <linearGradient id="earthGradient" x1="0%" y1="0%" x2="100%" y2="100%">
      <stop offset="0%" stop-color="#4A90E2"/>
      <stop offset="50%" stop-color="#357ABD"/>
      <stop offset="100%" stop-color="#2E5984"/>
    </linearGradient>
    <linearGradient id="networkGradient" x1="0%" y1="0%" x2="100%" y2="100%">
      <stop offset="0%" stop-color="#FF6B6B"/>
      <stop offset="100%" stop-color="#FF8E53"/>
    </linearGradient>
    <radialGradient id="glowGradient" cx="50%" cy="50%" r="50%">
      <stop offset="0%" stop-color="#FFD700" stop-opacity="0.8"/>
      <stop offset="100%" stop-color="#FFD700" stop-opacity="0"/>
    </radialGradient>
  </defs>
  
  <!-- 背景光晕效果 -->
  <circle cx="16" cy="16" r="15" fill="url(#glowGradient)" opacity="0.3"/>
  
  <!-- 地球主体 -->
  <circle cx="16" cy="16" r="12" fill="url(#earthGradient)" stroke="#2E5984" stroke-width="0.5"/>
  
  <!-- 地球经纬线 -->
  <ellipse cx="16" cy="16" rx="12" ry="6" fill="none" stroke="#87CEEB" stroke-width="0.8" opacity="0.6"/>
  <ellipse cx="16" cy="16" rx="12" ry="3" fill="none" stroke="#87CEEB" stroke-width="0.6" opacity="0.4"/>
  <ellipse cx="16" cy="16" rx="8" ry="12" fill="none" stroke="#87CEEB" stroke-width="0.8" opacity="0.6"/>
  <ellipse cx="16" cy="16" rx="4" ry="12" fill="none" stroke="#87CEEB" stroke-width="0.6" opacity="0.4"/>
  
  <!-- 大陆轮廓 -->
  <path d="M8 12 Q12 10 16 12 Q20 14 24 12" fill="none" stroke="#90EE90" stroke-width="1.2" opacity="0.8"/>
  <path d="M6 18 Q10 16 14 18 Q18 20 22 18" fill="none" stroke="#90EE90" stroke-width="1.2" opacity="0.8"/>
  
  <!-- 网络连接点 -->
  <circle cx="10" cy="10" r="1.5" fill="url(#networkGradient)"/>
  <circle cx="22" cy="8" r="1.5" fill="url(#networkGradient)"/>
  <circle cx="8" cy="20" r="1.5" fill="url(#networkGradient)"/>
  <circle cx="24" cy="22" r="1.5" fill="url(#networkGradient)"/>
  <circle cx="16" cy="6" r="1.5" fill="url(#networkGradient)"/>
  
  <!-- 网络连接线 -->
  <path d="M10 10 Q16 8 22 8" fill="none" stroke="url(#networkGradient)" stroke-width="1" opacity="0.7"/>
  <path d="M8 20 Q16 18 24 22" fill="none" stroke="url(#networkGradient)" stroke-width="1" opacity="0.7"/>
  <path d="M16 6 Q18 12 22 8" fill="none" stroke="url(#networkGradient)" stroke-width="1" opacity="0.7"/>
  
  <!-- 中心定位标记 -->
  <circle cx="16" cy="16" r="2" fill="#FFD700" stroke="#FF6B6B" stroke-width="1"/>
  <circle cx="16" cy="16" r="0.8" fill="#FF6B6B"/>
  
  <!-- 定位脉冲效果 -->
  <circle cx="16" cy="16" r="4" fill="none" stroke="#FFD700" stroke-width="1" opacity="0.5">
    <animate attributeName="r" values="4;6;4" dur="2s" repeatCount="indefinite"/>
    <animate attributeName="opacity" values="0.5;0.1;0.5" dur="2s" repeatCount="indefinite"/>
  </circle>
</svg>